<?xml version="1.0" encoding="UTF-8" standalone="no"?>
<svg
   fill="#ffffff"
   height="10mm"
   version="1.1"
   width="30mm"
   id="svg22"
   sodipodi:docname="logo_color.svg"
   inkscape:version="1.4 (86a8ad7, 2024-10-11)"
   xmlns:inkscape="http://www.inkscape.org/namespaces/inkscape"
   xmlns:sodipodi="http://sodipodi.sourceforge.net/DTD/sodipodi-0.dtd"
   xmlns="http://www.w3.org/2000/svg"
   xmlns:svg="http://www.w3.org/2000/svg">
  <sodipodi:namedview
     id="namedview22"
     pagecolor="#ffffff"
     bordercolor="#000000"
     borderopacity="0.25"
     inkscape:showpageshadow="2"
     inkscape:pageopacity="0.0"
     inkscape:pagecheckerboard="0"
     inkscape:deskcolor="#d1d1d1"
     inkscape:document-units="mm"
     showgrid="true"
     inkscape:zoom="5.12"
     inkscape:cx="48.339844"
     inkscape:cy="21.191406"
     inkscape:window-width="1600"
     inkscape:window-height="837"
     inkscape:window-x="-8"
     inkscape:window-y="-8"
     inkscape:window-maximized="1"
     inkscape:current-layer="svg22">
    <inkscape:grid
       id="grid22"
       units="mm"
       originx="0"
       originy="0"
       spacingx="3.7795276"
       spacingy="3.7795276"
       empcolor="#0099e5"
       empopacity="0.30196078"
       color="#0099e5"
       opacity="0.14901961"
       empspacing="5"
       enabled="true"
       visible="true" />
  </sodipodi:namedview>
  <defs
     id="defs1" />
  <path
     d="m 36.4949,12.7021 c 2.4039,0 3.3446,-1.1323 3.3446,-2.92657 0,-1.84651 -0.9407,-2.96138 -3.3446,-2.96138 H 35.2233 V 12.7021 Z M 32.2793,4.28827 h 4.3027 c 2.491,0 3.6756,0.6097 4.7034,1.60263 0.9929,0.97551 1.5329,2.33426 1.5329,3.86721 0,1.60259 -0.5923,3.03109 -1.7246,4.00659 -1.0277,0.9058 -2.5607,1.4284 -4.5117,1.4284 h -4.3027 z"
     id="path1"
     style="fill:#7b59ce;fill-opacity:1;fill-rule:nonzero" />
  <path
     d="m 49.1934,12.9284 c 1.7594,0 2.8394,-1.1845 2.8394,-3.1704 0,-2.00328 -1.08,-3.18783 -2.8394,-3.18783 -1.7594,0 -2.8394,1.18455 -2.8394,3.18783 0,1.9859 1.08,3.1704 2.8394,3.1704 z m 0,-8.86669 c 3.5188,0 5.8008,2.50846 5.8008,5.69629 0,3.1704 -2.2994,5.6789 -5.8008,5.6789 -3.5362,0 -5.8008,-2.5085 -5.8008,-5.6789 0,-3.17041 2.2646,-5.69629 5.8008,-5.69629 z"
     id="path2"
     style="fill:#7b59ce;fill-opacity:1;fill-rule:nonzero" />
  <path
     d="M 65.709,4.28818 H 75.8299 V 6.86632 H 72.3111 V 15.2279 H 69.2278 V 6.86632 H 65.709 Z"
     id="path3"
     style="fill:#7b59ce;fill-opacity:1;fill-rule:nonzero" />
  <path
     d="m 49.3334,25.3835 c 0.749,0 1.2891,-0.5226 1.2891,-1.1671 0,-0.6794 -0.5401,-1.1846 -1.2891,-1.1846 h -2.9091 v 2.3517 z m -0.2091,-4.4943 c 0.6794,0 1.0801,-0.4355 1.0801,-0.9755 0,-0.5226 -0.4007,-0.9755 -1.0801,-0.9755 h -2.6826 v 1.951 z m -5.6614,-4.1808 h 6.0795 c 2.3343,0 3.5363,1.1846 3.5363,2.6827 0,1.0278 -0.4704,1.6026 -0.9059,1.951 -0.2613,0.1916 -0.5574,0.331 -0.9058,0.4007 v 0.0871 c 0.4181,0.0871 0.8187,0.2439 1.1671,0.4703 0.5749,0.3832 1.1846,1.0278 1.1846,2.2123 0,1.7769 -1.4285,3.1008 -4.0763,3.1008 h -6.0795 z"
     id="path4"
     style="fill:#7b59ce;fill-opacity:1;fill-rule:nonzero" />
  <path
     d="m 59.6309,16.4821 c 2.2994,0 3.7453,0.993 4.5292,2.073 0.4703,0.6097 0.7839,1.3587 0.9581,2.16 h -2.8917 c -0.122,-0.3309 -0.2788,-0.5922 -0.5052,-0.8535 -0.4007,-0.4181 -1.0278,-0.8536 -2.0904,-0.8536 -1.7246,0 -2.8394,1.1845 -2.8394,3.1878 0,1.9685 1.1322,3.1704 2.8394,3.1704 1.0626,0 1.6897,-0.418 2.0904,-0.8361 0.2264,-0.2613 0.3832,-0.5226 0.5052,-0.8536 h 2.9265 c -0.122,0.7839 -0.4529,1.5155 -0.9407,2.1427 -0.8187,1.0626 -2.3342,2.0729 -4.6337,2.0729 -3.3794,0 -5.7485,-2.4213 -5.7485,-5.6788 0,-3.2576 2.4213,-5.7312 5.8008,-5.7312 z"
     id="path5"
     style="fill:#7b59ce;fill-opacity:1;fill-rule:nonzero" />
  <path
     d="m 65.6582,16.7084 h 2.9788 v 4.4944 h 0.0871 l 3.902,-4.4944 h 3.3969 l -4.7556,5.2783 5.1563,5.644 H 72.8352 L 68.7241,23.0493 H 68.637 v 4.5814 h -2.9788 z"
     id="path6"
     style="fill:#7b59ce;fill-opacity:1;fill-rule:nonzero" />
  <path
     d="m 76.6152,16.7084 h 2.9614 v 6.4105 h 0.0871 L 84.28,16.7084 h 2.9613 V 27.6307 H 84.28 v -6.4105 h -0.0871 l -4.6163,6.4105 h -2.9614 z"
     id="path7"
     style="fill:#7b59ce;fill-opacity:1;fill-rule:nonzero" />
  <path
     d="m 96.2452,14.9142 h -5.3827 c 0.3136,1.1846 1.1846,2.0208 2.7001,2.0208 1.5329,0 2.4388,-0.8362 2.6826,-2.0208 z m -8.0479,1.7943 h 2.9613 v 6.4105 h 0.0871 l 4.6163,-6.4105 h 2.9614 V 27.6307 H 95.862 v -6.4105 h -0.0871 l -4.6163,6.4105 h -2.9613 z"
     id="path8"
     style="fill:#7b59ce;fill-opacity:1;fill-rule:nonzero" />
  <path
     d="m 39.788,21.0286 c -0.2439,-1.1845 -1.1497,-2.0207 -2.6827,-2.0207 -1.5155,0 -2.3865,0.8362 -2.7,2.0207 z m -2.6827,-4.5465 c 3.5363,0 5.6963,2.5433 5.6963,5.6963 0,0.2438 -0.0174,0.418 -0.0522,0.6445 h -8.4661 c 0.1394,1.3762 1.1323,2.5259 2.8046,2.5259 1.1149,0 1.6723,-0.3136 2.0556,-0.6446 0.2264,-0.1916 0.3832,-0.4006 0.5226,-0.6445 h 3.0659 c -0.2439,0.7142 -0.6097,1.3413 -1.1149,1.9162 -0.8362,0.9407 -2.2123,1.8813 -4.5292,1.8813 -3.4143,0 -5.8008,-2.4388 -5.8008,-5.6788 0.0174,-3.1879 2.3169,-5.6963 5.8182,-5.6963 z"
     id="path9"
     style="fill:#7b59ce;fill-opacity:1;fill-rule:nonzero" />
  <path
     d="m 84.1396,4.3055 v 1.37617 h -0.0871 c -0.5052,-0.871 -1.8117,-1.60263 -3.2401,-1.60263 -3.0659,0 -5.1737,2.50846 -5.1737,5.6963 0,3.17046 2.1252,5.67886 5.1737,5.67886 1.3936,0 2.7349,-0.6794 3.2401,-1.5852 h 0.0871 v 1.3588 h 2.9613 V 4.3055 Z m -2.7001,8.6228 c -1.7594,0 -2.8395,-1.1845 -2.8395,-3.17038 0,-2.00329 1.0801,-3.18784 2.8395,-3.18784 1.7594,0 2.8394,1.18455 2.8394,3.18784 0,1.98588 -1.08,3.17038 -2.8394,3.17038 z"
     id="path10"
     style="fill:#7b59ce;fill-opacity:1;fill-rule:nonzero" />
  <path
     d="M 61.042,8.46893 C 59.8574,8.20763 58.9342,7.92892 58.9342,7.3018 c 0,-0.38324 0.3832,-0.80131 1.5329,-0.76647 0.7143,0.01742 1.2891,0.31355 1.5853,0.55743 0.2787,0.2613 0.5051,0.59228 0.6271,1.01035 h 2.9788 C 65.4841,7.3018 65.1531,6.51791 64.5608,5.78627 63.8118,4.88044 62.6272,4.06171 60.4671,4.06171 c -2.9439,0 -4.6511,1.60262 -4.6511,3.37945 0,1.95102 1.6375,2.70004 3.3447,3.13554 1.6548,0.4181 3.2923,0.662 3.2923,1.4807 0,0.4704 -0.4703,0.9407 -1.6723,0.9233 -0.9755,-0.0174 -1.5504,-0.3136 -1.8813,-0.6446 -0.1917,-0.1916 -0.5226,-0.7142 -0.5923,-1.1322 h -2.9614 c 0.1394,0.8361 0.6445,1.8813 1.0975,2.4387 0.8013,0.9581 2.0555,1.8117 4.3375,1.8117 3.1878,0 4.7905,-1.7071 4.7905,-3.5362 C 65.5537,9.47928 62.9582,8.92185 61.042,8.46893 Z"
     id="path11"
     style="fill:#7b59ce;fill-opacity:1;fill-rule:nonzero" />
  <path
     d="M 61.042,8.46893 C 59.8574,8.20763 58.9342,7.92892 58.9342,7.3018 c 0,-0.38324 0.3832,-0.80131 1.5329,-0.76647 0.7143,0.01742 1.2891,0.31355 1.5853,0.55743 0.2787,0.2613 0.5051,0.59228 0.6271,1.01035 h 2.9788 C 65.4841,7.3018 65.1531,6.51791 64.5608,5.78627 63.8118,4.88044 62.6272,4.06171 60.4671,4.06171 c -2.9439,0 -4.6511,1.60262 -4.6511,3.37945 0,1.95102 1.6375,2.70004 3.3447,3.13554 1.6548,0.4181 3.2923,0.662 3.2923,1.4807 0,0.4704 -0.4703,0.9407 -1.6723,0.9233 -0.9755,-0.0174 -1.5504,-0.3136 -1.8813,-0.6446 -0.1917,-0.1916 -0.5226,-0.7142 -0.5923,-1.1322 h -2.9614 c 0.1394,0.8361 0.6445,1.8813 1.0975,2.4387 0.8013,0.9581 2.0555,1.8117 4.3375,1.8117 3.1878,0 4.7905,-1.7071 4.7905,-3.5362 C 65.5537,9.47928 62.9582,8.92185 61.042,8.46893 Z"
     id="path12"
     style="fill:#7b59ce;fill-opacity:1;fill-rule:nonzero" />
  <path
     d="m 26.8509,22.0043 c -0.2439,-0.1916 -0.5923,-0.2264 -0.7839,-0.0871 -0.1568,0.1045 -0.3484,0.2787 -0.54,0.4529 -0.1916,0.1568 -0.4007,0.331 -0.6097,0.5052 0,0.0349 0.0174,0.0523 0.0174,0.0871 0,0.5052 0.331,0.8362 0.3484,0.8536 0.1568,0.1393 0.1568,0.3832 0.0174,0.5226 -0.0697,0.0697 -0.1742,0.1219 -0.2787,0.1219 -0.0871,0 -0.1742,-0.0348 -0.2613,-0.1045 -0.0174,-0.0174 -0.4181,-0.4007 -0.54,-1.0278 -0.1568,0.0697 -0.3136,0.1394 -0.4878,0.1742 -0.0697,0.3833 0.1045,0.9059 0.2265,1.0801 0.1219,0.1742 0.0871,0.4006 -0.0871,0.5226 -0.0697,0.0522 -0.1394,0.0696 -0.2265,0.0696 -0.1219,0 -0.2264,-0.0522 -0.2961,-0.1567 -0.2091,-0.2788 -0.4181,-0.8885 -0.3832,-1.4633 -0.1917,-0.0174 -0.3833,-0.0697 -0.5575,-0.1742 -1.0974,0.3484 -1.4633,1.4458 -1.3239,2.1601 1.4633,1.3239 2.5781,1.5503 2.8743,1.3587 1.1323,-0.749 2.3691,-2.3691 3.0659,-4.0066 0.1568,-0.3658 0.1045,-0.6793 -0.1742,-0.8884 z"
     id="path13"
     style="fill:#7b59ce;fill-opacity:1;fill-rule:nonzero" />
  <path
     d="m 6.78541,26.5334 c -0.31356,0.1916 -0.67938,0.2265 -0.99294,0.2265 -0.29613,0 -0.54001,-0.0523 -0.59227,-0.0523 -0.20904,-0.0348 -0.33098,-0.2439 -0.29614,-0.4355 0.03484,-0.209 0.24388,-0.331 0.4355,-0.2961 0.1742,0.0348 0.74905,0.0871 1.04519,-0.0871 0.01742,0 0.01742,-0.0175 0.03484,-0.0175 -0.03484,-0.0871 -0.05226,-0.1916 -0.05226,-0.2961 -0.03484,0 -0.0871,0 -0.12194,0 -0.54002,0 -1.02777,-0.2613 -1.02777,-0.2613 -0.1742,-0.1045 -0.24388,-0.331 -0.13936,-0.5052 0.10452,-0.1742 0.33098,-0.2439 0.50517,-0.1393 0.19162,0.1045 0.64454,0.2438 0.88842,0.1393 0.01742,-0.0174 0.03484,-0.0174 0.05226,-0.0174 0.03484,-0.0523 0.06968,-0.1045 0.10452,-0.1568 -0.94068,-0.3658 -1.39359,-1.6374 -0.90584,-2.4039 0.12194,-0.1916 0.24388,-0.331 0.36582,-0.4529 -0.57485,0.1045 -1.20197,0.209 -1.65489,0.2787 -1.08003,0.1568 -1.20197,0.4355 -1.23681,0.7316 -0.03484,0.2962 -0.1742,1.8465 0.64454,3.4317 0.50517,0.993 1.44585,1.6027 2.09038,1.6723 0.41808,0.0523 0.95809,-0.0522 1.13229,-0.5051 0.12194,-0.2613 -0.03484,-0.5052 -0.27871,-0.8536 z"
     id="path14"
     style="fill:#7b59ce;fill-opacity:1;fill-rule:nonzero" />
  <path
     d="m 6.12306,13.8692 c -0.0871,-0.0871 -0.1742,-0.1568 -0.2613,-0.2264 -0.41808,0.2961 -1.02777,0.749 -1.67231,1.3413 l 0.24388,0.2439 0.06968,0.0696 0.1742,0.1742 C 5.35658,14.8447 5.9837,14.3918 6.38436,14.1305 6.31468,14.0608 6.26242,14.0086 6.19274,13.9389 6.1579,13.9041 6.14048,13.8866 6.12306,13.8692 Z"
     id="path15"
     style="fill:#7b59ce;fill-opacity:1;fill-rule:nonzero" />
  <path
     d="m 18.924,12.9633 c -0.0174,-0.0697 -0.0522,-0.1394 -0.0697,-0.1916 -0.1045,-0.2613 -0.209,-0.4878 -0.2961,-0.662 -0.0523,0.0349 -0.1045,0.0697 -0.1568,0.0871 -0.1916,0.1045 -0.3832,0.1742 -0.5574,0.2265 -0.3136,0.1045 -0.6271,0.1393 -0.871,0.1568 -0.0523,0 -0.1219,0 -0.1742,0 -0.5574,0 -1.1323,-0.122 -1.62,-0.3659 -0.0175,0.2613 -0.1394,0.4878 -0.331,0.662 -0.1742,0.1568 -0.4007,0.2439 -0.6446,0.2439 -0.2787,0 -0.5226,-0.122 -0.6968,-0.2962 -0.0871,-0.1045 -0.1742,-0.209 -0.2264,-0.3484 -0.331,0.0697 -0.6794,0.1046 -1.0278,0.0871 -0.6794,-0.0348 -1.6375,-0.2613 -2.43877,-1.1671 -0.0871,-0.1045 -0.10452,-0.2439 -0.05226,-0.3484 0.05226,-0.1219 0.1742,-0.1916 0.29613,-0.209 0.8536,-0.0349 1.3762,-0.3833 1.9162,-0.7665 0.4355,-0.29613 0.8884,-0.62711 1.4807,-0.69679 0.0522,0 0.1045,0 0.1568,0.01742 0.1045,0.03484 0.1742,0.10452 0.209,0.20904 0.1045,0.27872 0.4355,0.47033 0.7839,0.48773 0.1742,0 0.5923,-0.0348 0.8013,-0.50515 0.0523,-0.13936 0.209,-0.22646 0.3658,-0.19162 0.3484,0.05226 0.662,0.1742 0.9233,0.3484 0.1045,0.06968 0.209,0.12194 0.3135,0.19162 0.0697,0.05226 0.1394,0.10455 0.2265,0.15675 L 16.8685,9.00899 c -0.0523,0.01742 -0.1045,0.01742 -0.1568,0.03484 -0.0348,0 -0.0523,0 -0.0871,0 -0.1568,0 -0.209,0 -0.2613,0 0,0 0,0 -0.0174,0 -0.1045,0 -0.1742,0 -0.2091,0 -0.0871,0 -0.1219,0 -0.2787,0 -0.5226,0 -0.6793,-0.36581 -0.8013,-0.71421 C 15.022,8.2251 14.9871,8.138 14.9523,8.0509 c 0,0 0,0 0,-0.01742 C 14.9,7.89412 14.8304,7.66766 14.6736,7.66766 c 0,0 0,0 -0.0174,0 -0.1394,0 -0.1917,0.15678 -0.2788,0.36582 -0.0174,0.05226 -0.0348,0.0871 -0.0522,0.13936 -0.0174,0.05226 -0.0349,0.10452 -0.0523,0.15678 -0.1219,0.3484 -0.2787,0.71421 -0.8013,0.71421 -0.1219,0 -0.1742,0 -0.2265,0 -0.0522,0 -0.1045,0 -0.2613,0 -0.0522,0 -0.1045,0 -0.2264,0 -0.4181,0 -0.5574,-0.19162 -0.662,-0.69679 l -0.6271,1.96846 c -0.0522,0.1916 -0.2439,0.2961 -0.4355,0.2439 -2.52586,-0.59231 -5.66143,-0.5226 -7.35116,1.2716 0.87099,0.0349 1.62005,0.4181 2.33426,0.9581 0.1742,0.1394 0.36582,0.2961 0.54002,0.4529 0.15678,0.1394 0.29614,0.2787 0.45291,0.4355 0.47034,0.4878 0.92326,1.0278 1.37617,1.5504 0.05226,0.0697 0.10452,0.1393 0.1742,0.1916 0.03484,0.0348 0.05226,0.0697 0.0871,0.1045 0.19162,0.2265 0.40066,0.4529 0.62712,0.6794 1.04518,1.08 2.49108,2.1426 4.59888,2.3517 2.4387,0.2439 4.3723,-0.7317 5.0517,-2.5607 0.0697,-0.1742 0.1045,-0.331 0.1568,-0.4878 0.0174,-0.0523 0.0174,-0.0871 0.0348,-0.1394 0,-0.0348 0.0175,-0.0522 0.0175,-0.0871 0.0348,-0.1393 0.0522,-0.2787 0.0696,-0.418 0.0697,-0.5226 0,-1.0626 -0.1219,-1.5504 -0.0871,-0.1219 -0.1219,-0.2439 -0.1568,-0.3484 z m -4.1285,1.2891 c -0.1916,0.0522 -0.4006,0.0871 -0.6097,0.0871 -0.4181,0 -0.8361,-0.122 -1.1845,-0.3484 -0.1742,-0.1045 -0.2265,-0.3484 -0.122,-0.5226 0.1045,-0.1742 0.3484,-0.2265 0.5226,-0.122 0.2265,0.1568 0.5052,0.2265 0.7839,0.2265 0.1394,0 0.2787,-0.0174 0.4007,-0.0523 0.1916,-0.0522 0.4006,0.0523 0.4703,0.2613 0.0523,0.2091 -0.0697,0.4181 -0.2613,0.4704 z"
     id="path16"
     style="fill:#7b59ce;fill-opacity:1;fill-rule:nonzero" />
  <path
     d="m 16.1033,7.2497 h 0.1742 L 16.0685,6.60516 H 15.8943 15.1801 12.6194 C 12.6019,6.64 12.5845,6.69226 12.5845,6.7271 l -0.1568,0.5226 h 3.0833 z"
     id="path17"
     style="fill:#7b59ce;fill-opacity:1;fill-rule:nonzero" />
  <path
     d="m 15.8779,10.0891 c -0.2787,0.4354 -0.749,0.6619 -1.289,0.6619 -0.5226,-0.0174 -1.0104,-0.2613 -1.2717,-0.6619 -0.331,0.1045 -0.6271,0.3135 -0.9581,0.54 -0.4181,0.2961 -0.8884,0.6271 -1.5329,0.7839 0.5051,0.3484 1.0452,0.4703 1.4458,0.4877 0.331,0.0174 0.6794,-0.0348 1.0104,-0.1219 0.418,-0.122 0.8013,-0.3136 1.08,-0.5749 l 0.0174,-0.0174 c 0.0523,-0.0523 0.1394,-0.0871 0.2091,-0.0871 h 0.0174 c 0.0871,0 0.1742,0.0348 0.2264,0.0871 0.4878,0.4703 1.3065,0.7316 2.0904,0.6968 0.2787,-0.0174 0.6097,-0.0697 0.9755,-0.2265 0.122,-0.0522 0.2439,-0.1045 0.3659,-0.1916 0.0348,-0.0348 0.0871,-0.0522 0.1219,-0.0871 -0.1219,-0.0348 -0.2439,-0.0697 -0.3658,-0.1219 -0.2439,-0.0871 -0.4704,-0.2091 -0.662,-0.331 -0.1742,-0.1045 -0.3484,-0.2265 -0.5052,-0.331 -0.3484,-0.209 -0.6445,-0.4006 -0.9755,-0.5051 z"
     id="path18"
     style="fill:#7b59ce;fill-opacity:1;fill-rule:nonzero" />
  <path
     d="m 14.2737,5.00238 c -0.4703,0 -0.7665,0.33098 -1.0452,0.95809 0.6794,-0.01742 1.2542,-0.24388 1.7594,-0.55743 -0.1916,-0.2613 -0.4181,-0.40066 -0.7142,-0.40066 z"
     id="path19"
     style="fill:#7b59ce;fill-opacity:1;fill-rule:nonzero" />
  <path
     d="m 22.4969,10.5942 0.6097,0.4007 0.9058,0.5923 c 0.0349,-0.0523 0.0523,-0.1046 0.0871,-0.1742 0.331,-0.6271 0.8362,-1.74202 0.7317,-2.59559 -0.0523,-0.50518 -0.3484,-1.01035 -0.7491,-1.27165 -0.1219,-0.06968 -0.331,-0.19162 -0.54,-0.12194 -0.1916,0.06968 -0.4006,0.76647 -0.4355,1.48069 0,0.13936 -0.1045,0.27872 -0.2439,0.31356 -0.1393,0.03484 -0.2961,-0.01742 -0.3658,-0.13936 0,-0.01742 -0.1568,-0.2613 -0.331,-0.59228 -0.0174,-0.03484 -0.1219,-0.10452 -0.2264,-0.0871 -0.0349,0 -0.1394,0.01742 -0.1916,0.20904 -0.0523,0.22646 0.1742,0.66196 0.3658,1.01035 0.1916,0.36582 0.3658,0.67938 0.3832,0.97548 z"
     id="path20"
     style="fill:#7b59ce;fill-opacity:1;fill-rule:nonzero" />
  <path
     d="M 4.88707,16.6389 4.17286,15.9421 3.96382,15.7331 3.92898,15.6982 3.6851,15.4544 3.66768,15.437 c -0.90583,0.9232 -1.41101,1.7245 -1.4981,2.4039 -0.03484,0.2613 0.05225,0.7142 0.26129,0.9581 0.10452,0.1219 0.20904,0.1742 0.3484,0.1742 0,0 0,0 0.01742,0 0.33098,0 0.74905,-0.662 0.92325,-1.0975 0.05226,-0.1567 0.20904,-0.2438 0.36582,-0.209 0.15678,0.0174 0.27872,0.1568 0.27872,0.3136 L 4.3819,18.259 c 0.01742,0.1393 0.0871,0.2438 0.1742,0.2787 0.0871,0.0348 0.20903,0.0174 0.29613,-0.0697 0.0871,-0.0871 0.05226,-0.5923 0.01742,-0.8536 -0.01742,-0.3309 -0.03484,-0.6968 0.01742,-0.9755 z"
     id="path21"
     style="fill:#7b59ce;fill-opacity:1;fill-rule:nonzero" />
  <path
     d="m 28.193,20.2797 c -0.9929,-0.7665 -2.4213,-0.8188 -3.3968,-0.122 -0.2265,0.1568 -0.453,0.3658 -0.6968,0.5749 -0.1742,0.1393 -0.3658,0.3135 -0.5226,0.4355 l -1.742,-3.2401 c 2.4213,-1.6375 3.5536,-4.024 3.9717,-5.0866 0.4529,-0.7665 1.3936,-2.5956 1.202,-4.26789 C 26.8865,7.40637 26.2246,6.30892 25.2665,5.69923 24.5,5.21147 23.6465,5.08953 22.8451,5.35083 22.3922,5.50761 21.9916,5.80375 21.6954,6.22182 L 21.5735,6.3786 C 21.0161,7.09282 20.598,7.09282 20.3541,6.91862 20.0928,6.74442 20.0231,6.36118 20.3715,5.85601 20.5109,5.64697 20.7373,5.31599 20.8941,5.00243 21.7651,3.22561 21.6257,1.53588 20.5283,0.595208 19.9883,0.124872 19.2915,-0.0667464 18.5599,0.0203529 17.6889,0.142292 16.8701,0.682308 16.2778,1.53588 16.1733,1.67524 16.0688,1.83202 15.9643,2.00622 15.8772,2.14558 15.7901,2.28494 15.6856,2.40687 15.2501,2.18042 14.7797,2.0759 14.2571,2.0759 c -2.5258,0 -3.3794,2.56072 -3.8323,3.93689 L 9.78024,8.03349 C 8.52601,7.89413 7.30662,7.91155 6.20917,8.10317 3.962,8.50383 2.2897,9.54902 1.24451,11.2387 0.843849,11.8659 0.861268,12.6846 1.29676,13.2943 1.5058,13.5904 1.7671,13.7995 2.08066,13.9388 0.861268,15.1931 0.181893,16.395 0.0251145,17.5273 -0.0619848,18.2241 0.077374,19.339 0.774169,20.1751 1.05289,20.5061 1.38386,20.75 1.7671,20.9068 1.31419,21.3945 1.12257,21.952 1.07031,22.4571 c -0.05226,0.4007 -0.226461,2.5259 0.87099,4.686 0.80131,1.5503 2.282,2.6652 3.78011,2.8394 0.13936,0.0174 0.29614,0.0174 0.4355,0.0174 1.37617,0 2.5433,-0.7664 2.97879,-1.951 0.2613,-0.7316 0.15678,-1.3762 -0.05226,-1.8988 2.17746,-0.1916 3.97176,-0.9755 5.40016,-2.3516 1.7594,1.3413 3.4491,2.2645 4.5988,2.822 1.6027,1.62 3.2401,2.5084 4.6163,2.5084 0.5574,0 1.0452,-0.1393 1.4807,-0.4355 1.4633,-0.9929 2.9788,-2.9265 3.8672,-4.9646 0,-0.0174 0.0174,-0.0349 0.0174,-0.0697 0.4878,-1.2368 0.1568,-2.5956 -0.871,-3.3794 z m -4.5117,7.386 c -0.9233,0 -2.2994,-0.7839 -3.6233,-2.1427 -0.0349,-0.0348 -0.0697,-0.0696 -0.0871,-0.1045 -1.1498,-0.54 -2.944,-1.4981 -4.8428,-2.9788 -0.2961,-0.2787 -0.5748,-0.54 -0.8187,-0.7665 -0.6271,-0.6271 -1.0452,-1.0626 -1.0452,-1.08 -0.1219,-0.1393 -0.331,-0.1568 -0.4703,-0.0174 -0.1394,0.1219 -0.1568,0.331 -0.0174,0.4703 0.0348,0.0349 0.4529,0.5052 1.1148,1.1497 0.0174,0.0175 0.0349,0.0349 0.0523,0.0523 -1.202,1.4284 -3.1356,2.5956 -6.32342,2.491 0,0 0,0 -0.01742,0 -0.22646,0.0697 -0.40066,0.2091 -0.48776,0.4007 -0.0871,0.1916 -0.0871,0.4181 -0.01742,0.5923 0.05226,0.1219 0.13936,0.2439 0.24388,0.4006 0.2613,0.3833 0.60969,0.871 0.40065,1.4459 -0.20903,0.5923 -0.83615,0.9581 -1.56778,0.9581 -0.0871,0 -0.1742,0 -0.2613,-0.0175 C 4.9201,28.3973 3.84006,27.5612 3.28263,26.4811 2.3768,24.7043 2.51616,22.9797 2.56841,22.6488 2.67293,21.6907 3.54393,21.4468 4.38008,21.3248 5.07688,21.2203 6.22659,21.0113 6.97564,20.8719 7.21952,20.5932 7.48082,20.21 7.82921,19.6351 8.33439,18.7641 8.71763,17.7712 8.99635,16.9873 8.63053,16.6389 8.33439,16.3079 8.05567,15.9769 7.96857,15.8724 7.88147,15.7679 7.79437,15.6634 7.74212,15.6111 7.70727,15.5589 7.65501,15.5066 c -0.99293,0.2613 -1.72456,0.8013 -2.05554,1.08 0,0.0175 0,0.0349 -0.01742,0.0523 -0.06968,0.1742 -0.05226,0.5749 -0.01742,0.8884 0.03484,0.5923 0.0871,1.1323 -0.27872,1.4284 C 4.98978,19.1996 4.62396,19.2519 4.3104,19.1299 4.20588,19.0777 4.10136,19.0254 4.01426,18.9383 3.97942,18.9035 3.962,18.8861 3.92716,18.8512 c -0.01742,0.0174 -0.01742,0.0349 -0.03484,0.0523 -0.26129,0.3658 -0.64453,0.7142 -1.09745,0.7142 -0.01742,0 -0.01742,0 -0.03484,0 C 2.42906,19.6003 2.15034,19.4609 1.92388,19.1996 1.57548,18.799 1.45354,18.1544 1.5058,17.7189 c 0.12194,-0.871 0.73164,-1.8465 1.82909,-2.9265 0.60969,-0.7316 1.25423,-1.2368 1.79424,-1.5852 0.03484,-0.0174 0.06968,-0.0523 0.12194,-0.0697 0,0 -0.01742,0 -0.01742,-0.0174 C 4.53686,12.6498 3.77039,12.4233 2.91681,12.5801 2.77745,12.6149 2.62067,12.5452 2.53357,12.4233 2.44648,12.3014 2.44648,12.1446 2.51616,12.0052 3.33489,10.6987 4.6588,9.88 6.47047,9.54902 7.75954,9.32256 9.29248,9.37482 10.808,9.68838 L 11.3654,7.94639 C 11.2087,7.89413 11.1041,7.75477 11.1041,7.58057 c 0,-0.20904 0.1742,-0.38323 0.3833,-0.38323 h 0.1219 l 0.2439,-0.74906 c 0.5052,-1.53295 1.08,-2.90911 2.4214,-2.90911 0.6793,0 1.1497,0.36581 1.4981,0.88841 0.0348,0.05226 0.0697,0.10452 0.1045,0.15678 0.0174,-0.01742 0.0174,-0.01742 0.0348,-0.03484 0.6794,-0.71422 1.1846,-1.56779 1.6201,-2.19491 0.6619,-0.95809 1.5329,-1.08003 2.0381,-0.66195 0.5574,0.47034 0.54,1.51553 0,2.59556 -0.6097,1.23681 -1.6723,1.86392 -2.4736,2.1078 -0.1394,0.05226 -0.2787,0.0871 -0.4007,0.10452 0.0697,0.20904 0.1394,0.4355 0.2265,0.67938 h 0.4877 c 0.0175,0 0.0175,0 0.0349,0 0.1916,0.01742 0.331,0.1742 0.331,0.36581 0,0.20904 -0.1568,0.36582 -0.3659,0.36582 h -0.0174 -0.0522 c 0,0.01742 0,0.03484 -0.0175,0.06968 -0.0174,0.10452 -0.0348,0.20904 -0.0696,0.29614 0.2787,0.85357 0.5574,1.68972 0.7316,2.19493 0.3136,0.1567 0.6794,0.2787 1.1497,0.2961 0.1219,0 0.2439,0.0871 0.2961,0.209 0.0523,0.122 0.0349,0.2613 -0.0522,0.3484 -0.0349,0.0349 -0.0523,0.0523 -0.0871,0.0871 -0.0871,0.1046 -0.1916,0.1917 -0.2787,0.2788 0.0348,0.0522 0.0871,0.1045 0.1219,0.1742 0.1742,0.2438 0.3136,0.4877 0.4355,0.7664 1.0278,-0.4877 1.8813,-1.2716 2.2472,-1.9684 0,-0.0174 0,-0.0349 0,-0.0697 0.0174,-0.1219 -0.1742,-0.5052 -0.2962,-0.73163 -0.2613,-0.50517 -0.54,-1.02777 -0.418,-1.4981 0.1045,-0.40066 0.3832,-0.66196 0.7664,-0.71422 0.1916,-0.01742 0.3833,0.01742 0.5575,0.10452 0.0522,0.03484 0.1045,0.06968 0.1567,0.10452 0,-0.03484 0.0175,-0.05226 0.0175,-0.0871 0.1219,-0.47034 0.3484,-0.94067 0.749,-1.06261 0.3484,-0.12194 0.7491,-0.05226 1.1323,0.19162 0.5749,0.36581 0.9755,1.06261 1.0626,1.75941 0.1394,1.37619 -0.8884,3.13559 -1.08,3.44909 -0.4355,1.1497 -1.7072,3.7976 -4.6337,5.1563 l 2.944,5.4873 c 0.5574,0.2613 1.2193,-0.122 1.3761,-0.2265 0.2962,-0.1916 0.6446,-0.4877 0.9407,-0.749 0.209,-0.1917 0.4181,-0.3659 0.5923,-0.4878 0.4355,-0.3136 1.1148,-0.2787 1.6026,0.1045 0.5052,0.3833 0.6445,1.0278 0.3832,1.7072 0,0 0,0 0,0.0174 -0.7664,1.7768 -2.0729,3.4665 -3.3097,4.3027 -0.2091,0.1916 -0.4181,0.2439 -0.6794,0.2439 z"
     id="path22"
     style="fill:#7b59ce;fill-opacity:1;fill-rule:nonzero" />
</svg>
